# xmcd
#
# Track frame offsets: 
#        150
#        14082
#        30580
#        50571
#        63738
#        76184
#        102743
#
# Disc length: 3339 seconds
#
# Revision: 0
# Processed by: cddbd v1.5.2PL0 Copyright (c) Steve Scherf et al.
# Submitted via: ExactAudioCopy v1.0b3
#
DISCID=5d0d0907
DTITLE=Gustaff Elektryczna Manufaktura - same
DYEAR=2019
DGENRE=Blues
TTITLE0=1 Zły duch
TTITLE1=2 Cholera
TTITLE2=3 Bez słów
TTITLE3=4 Bunt czterdziestolatka
TTITLE4=5 Droga
TTITLE5=6 Mgła
TTITLE6=Data Track
EXTD=
EXTT0=
EXTT1=
EXTT2=
EXTT3=
EXTT4=
EXTT5=
EXTT6=
PLAYORDER=
